<mxfile host="drawio-plugin" modified="2023-10-28T10:07:55.189Z" agent="5.0 (X11; Linux x86_64) AppleWebKit/537.36 (KHTML, like Gecko) Chrome/111.0.0.0 Safari/537.36" etag="VIIK5nMkw5XXpnAru-z4" version="20.5.3" type="embed" pages="2"><diagram name="ProjectStructure" id="3kCaJhsZH5ZPdCVRugP8"><mxGraphModel dx="1705" dy="1926" grid="1" gridSize="10" guides="1" tooltips="1" connect="1" arrows="1" fold="1" page="1" pageScale="1" pageWidth="827" pageHeight="1169" math="0" shadow="0"><root><mxCell id="0"/><mxCell id="1" parent="0"/><mxCell id="ObyLWbFPhNjYNBy1AQXe-1" value="" style="whiteSpace=wrap;html=1;aspect=fixed;" parent="1" vertex="1"><mxGeometry x="-60" y="-60" width="860" height="860" as="geometry"/></mxCell><mxCell id="ObyLWbFPhNjYNBy1AQXe-2" value="" style="rounded=0;whiteSpace=wrap;html=1;strokeColor=#000000;fontStyle=1" parent="1" vertex="1"><mxGeometry x="-50" y="-45" width="440" height="300" as="geometry"/></mxCell><mxCell id="ObyLWbFPhNjYNBy1AQXe-3" value="" style="rounded=0;whiteSpace=wrap;html=1;" parent="1" vertex="1"><mxGeometry x="-50" y="270" width="840" height="520" as="geometry"/></mxCell><mxCell id="ObyLWbFPhNjYNBy1AQXe-4" value="&lt;h1&gt;&lt;font color=&quot;#2b41ff&quot; style=&quot;font-size: 27px; background-color: rgb(255, 255, 255);&quot;&gt;Backend&lt;/font&gt;&lt;/h1&gt;" style="text;strokeColor=#85FFFF;align=center;fillColor=none;html=1;verticalAlign=middle;whiteSpace=wrap;rounded=0;spacingTop=4;" parent="1" vertex="1"><mxGeometry x="-10" y="-40" width="300" height="60" as="geometry"/></mxCell><mxCell id="ObyLWbFPhNjYNBy1AQXe-5" value="&lt;font style=&quot;font-size: 26px;&quot;&gt;Spring java+Hibernate&lt;/font&gt;" style="text;strokeColor=none;align=center;fillColor=none;html=1;verticalAlign=middle;whiteSpace=wrap;rounded=0;" parent="1" vertex="1"><mxGeometry x="40" y="60" width="210" height="50" as="geometry"/></mxCell><mxCell id="ObyLWbFPhNjYNBy1AQXe-6" value="&lt;font style=&quot;font-size: 26px;&quot;&gt;Frontend&lt;/font&gt;" style="text;strokeColor=none;align=center;fillColor=none;html=1;verticalAlign=middle;whiteSpace=wrap;rounded=0;" parent="1" vertex="1"><mxGeometry x="280" y="290" width="170" height="70" as="geometry"/></mxCell><mxCell id="ObyLWbFPhNjYNBy1AQXe-7" value="" style="rounded=0;whiteSpace=wrap;html=1;" parent="1" vertex="1"><mxGeometry x="400" y="-40" width="390" height="300" as="geometry"/></mxCell><mxCell id="ObyLWbFPhNjYNBy1AQXe-8" value="&lt;font color=&quot;#de1717&quot;&gt;Server&lt;/font&gt;" style="text;strokeColor=none;align=center;fillColor=none;html=1;verticalAlign=middle;whiteSpace=wrap;rounded=0;fontSize=29;" parent="1" vertex="1"><mxGeometry x="510" y="-45" width="170" height="70" as="geometry"/></mxCell><mxCell id="ObyLWbFPhNjYNBy1AQXe-9" value="&lt;font style=&quot;font-size: 17px;&quot;&gt;PostgreSQL&lt;/font&gt;" style="text;strokeColor=none;align=center;fillColor=none;html=1;verticalAlign=middle;whiteSpace=wrap;rounded=0;" parent="1" vertex="1"><mxGeometry x="414" y="50" width="176" height="80" as="geometry"/></mxCell><mxCell id="ObyLWbFPhNjYNBy1AQXe-10" value="React" style="text;strokeColor=none;align=center;fillColor=none;html=1;verticalAlign=middle;whiteSpace=wrap;rounded=0;fontSize=32;" parent="1" vertex="1"><mxGeometry x="-30" y="360" width="190" height="110" as="geometry"/></mxCell><mxCell id="ObyLWbFPhNjYNBy1AQXe-14" value="a" style="endArrow=none;html=1;rounded=0;entryX=0.477;entryY=0.65;entryDx=0;entryDy=0;entryPerimeter=0;" parent="1" source="ObyLWbFPhNjYNBy1AQXe-3" target="ObyLWbFPhNjYNBy1AQXe-2" edge="1"><mxGeometry width="50" height="50" relative="1" as="geometry"><mxPoint x="140" y="220" as="sourcePoint"/><mxPoint x="190" y="170" as="targetPoint"/></mxGeometry></mxCell><mxCell id="ObyLWbFPhNjYNBy1AQXe-15" value="rest api" style="text;strokeColor=none;align=center;fillColor=none;html=1;verticalAlign=middle;whiteSpace=wrap;rounded=0;fontSize=20;" parent="1" vertex="1"><mxGeometry x="180" y="180" width="110" height="60" as="geometry"/></mxCell></root></mxGraphModel></diagram><diagram id="C_EzGLRpEZKXZC10Ob4V" name="DatabaseStructure"><mxGraphModel dx="878" dy="757" grid="1" gridSize="10" guides="1" tooltips="1" connect="1" arrows="1" fold="1" page="1" pageScale="1" pageWidth="827" pageHeight="1169" math="0" shadow="0"><root><mxCell id="0"/><mxCell id="1" parent="0"/><mxCell id="aZEEDi98Ws-tVvL6JzIY-71" value="password" style="shape=table;startSize=30;container=1;collapsible=0;childLayout=tableLayout;fixedRows=1;rowLines=0;fontStyle=1;fillColor=#0000CC;movable=1;resizable=1;rotatable=1;deletable=1;editable=1;connectable=1;" parent="1" vertex="1"><mxGeometry x="600" y="380" width="180" height="260" as="geometry"/></mxCell><mxCell id="aZEEDi98Ws-tVvL6JzIY-72" value="" style="shape=tableRow;horizontal=0;startSize=0;swimlaneHead=0;swimlaneBody=0;top=0;left=0;bottom=0;right=0;collapsible=0;dropTarget=0;fillColor=none;points=[[0,0.5],[1,0.5]];portConstraint=eastwest;movable=1;resizable=1;rotatable=1;deletable=1;editable=1;connectable=1;" parent="aZEEDi98Ws-tVvL6JzIY-71" vertex="1"><mxGeometry y="30" width="180" height="30" as="geometry"/></mxCell><mxCell id="aZEEDi98Ws-tVvL6JzIY-73" value="PK" style="shape=partialRectangle;html=1;whiteSpace=wrap;connectable=1;fillColor=none;top=0;left=0;bottom=0;right=0;overflow=hidden;pointerEvents=1;movable=1;resizable=1;rotatable=1;deletable=1;editable=1;" parent="aZEEDi98Ws-tVvL6JzIY-72" vertex="1"><mxGeometry width="40" height="30" as="geometry"><mxRectangle width="40" height="30" as="alternateBounds"/></mxGeometry></mxCell><mxCell id="aZEEDi98Ws-tVvL6JzIY-74" value="passwordid" style="shape=partialRectangle;html=1;whiteSpace=wrap;connectable=1;fillColor=none;top=0;left=0;bottom=0;right=0;align=left;spacingLeft=6;overflow=hidden;movable=1;resizable=1;rotatable=1;deletable=1;editable=1;" parent="aZEEDi98Ws-tVvL6JzIY-72" vertex="1"><mxGeometry x="40" width="140" height="30" as="geometry"><mxRectangle width="140" height="30" as="alternateBounds"/></mxGeometry></mxCell><mxCell id="aZEEDi98Ws-tVvL6JzIY-75" value="" style="shape=tableRow;horizontal=0;startSize=0;swimlaneHead=0;swimlaneBody=0;top=0;left=0;bottom=0;right=0;collapsible=0;dropTarget=0;fillColor=none;points=[[0,0.5],[1,0.5]];portConstraint=eastwest;movable=1;resizable=1;rotatable=1;deletable=1;editable=1;connectable=1;" parent="aZEEDi98Ws-tVvL6JzIY-71" vertex="1"><mxGeometry y="60" width="180" height="30" as="geometry"/></mxCell><mxCell id="aZEEDi98Ws-tVvL6JzIY-76" value="FK" style="shape=partialRectangle;html=1;whiteSpace=wrap;connectable=1;fillColor=none;top=0;left=0;bottom=0;right=0;overflow=hidden;movable=1;resizable=1;rotatable=1;deletable=1;editable=1;" parent="aZEEDi98Ws-tVvL6JzIY-75" vertex="1"><mxGeometry width="40" height="30" as="geometry"><mxRectangle width="40" height="30" as="alternateBounds"/></mxGeometry></mxCell><mxCell id="aZEEDi98Ws-tVvL6JzIY-77" value="folderid" style="shape=partialRectangle;html=1;whiteSpace=wrap;connectable=1;fillColor=none;top=0;left=0;bottom=0;right=0;align=left;spacingLeft=6;overflow=hidden;movable=1;resizable=1;rotatable=1;deletable=1;editable=1;" parent="aZEEDi98Ws-tVvL6JzIY-75" vertex="1"><mxGeometry x="40" width="140" height="30" as="geometry"><mxRectangle width="140" height="30" as="alternateBounds"/></mxGeometry></mxCell><mxCell id="aZEEDi98Ws-tVvL6JzIY-78" value="" style="shape=tableRow;horizontal=0;startSize=0;swimlaneHead=0;swimlaneBody=0;top=0;left=0;bottom=0;right=0;collapsible=0;dropTarget=0;fillColor=none;points=[[0,0.5],[1,0.5]];portConstraint=eastwest;movable=1;resizable=1;rotatable=1;deletable=1;editable=1;connectable=1;" parent="aZEEDi98Ws-tVvL6JzIY-71" vertex="1"><mxGeometry y="90" width="180" height="50" as="geometry"/></mxCell><mxCell id="aZEEDi98Ws-tVvL6JzIY-79" value="1" style="shape=partialRectangle;html=1;whiteSpace=wrap;connectable=1;fillColor=none;top=0;left=0;bottom=0;right=0;overflow=hidden;movable=1;resizable=1;rotatable=1;deletable=1;editable=1;" parent="aZEEDi98Ws-tVvL6JzIY-78" vertex="1"><mxGeometry width="40" height="50" as="geometry"><mxRectangle width="40" height="50" as="alternateBounds"/></mxGeometry></mxCell><mxCell id="aZEEDi98Ws-tVvL6JzIY-80" value="password" style="shape=partialRectangle;html=1;whiteSpace=wrap;connectable=1;fillColor=none;top=0;left=0;bottom=0;right=0;align=left;spacingLeft=6;overflow=hidden;movable=1;resizable=1;rotatable=1;deletable=1;editable=1;" parent="aZEEDi98Ws-tVvL6JzIY-78" vertex="1"><mxGeometry x="40" width="140" height="50" as="geometry"><mxRectangle width="140" height="50" as="alternateBounds"/></mxGeometry></mxCell><mxCell id="aZEEDi98Ws-tVvL6JzIY-101" style="edgeStyle=orthogonalEdgeStyle;rounded=0;orthogonalLoop=1;jettySize=auto;html=1;exitX=0;exitY=0.5;exitDx=0;exitDy=0;" parent="1" source="aZEEDi98Ws-tVvL6JzIY-33" target="aZEEDi98Ws-tVvL6JzIY-57" edge="1"><mxGeometry relative="1" as="geometry"/></mxCell><mxCell id="aZEEDi98Ws-tVvL6JzIY-32" value="passwordHint" style="shape=table;startSize=70;container=1;collapsible=1;childLayout=tableLayout;fixedRows=1;rowLines=0;fontStyle=1;align=center;resizeLast=1;fillColor=#082A08;" parent="1" vertex="1"><mxGeometry x="340" y="570" width="180" height="190" as="geometry"/></mxCell><mxCell id="aZEEDi98Ws-tVvL6JzIY-33" value="" style="shape=tableRow;horizontal=0;startSize=0;swimlaneHead=0;swimlaneBody=0;fillColor=none;collapsible=0;dropTarget=0;points=[[0,0.5],[1,0.5]];portConstraint=eastwest;top=0;left=0;right=0;bottom=1;" parent="aZEEDi98Ws-tVvL6JzIY-32" vertex="1"><mxGeometry y="70" width="180" height="30" as="geometry"/></mxCell><mxCell id="aZEEDi98Ws-tVvL6JzIY-34" value="PK" style="shape=partialRectangle;connectable=0;fillColor=#1C2A23;top=0;left=0;bottom=0;right=0;fontStyle=1;overflow=hidden;" parent="aZEEDi98Ws-tVvL6JzIY-33" vertex="1"><mxGeometry width="30" height="30" as="geometry"><mxRectangle width="30" height="30" as="alternateBounds"/></mxGeometry></mxCell><mxCell id="aZEEDi98Ws-tVvL6JzIY-35" value="hintid" style="shape=partialRectangle;connectable=0;fillColor=#042A25;top=0;left=0;bottom=0;right=0;align=left;spacingLeft=6;fontStyle=5;overflow=hidden;" parent="aZEEDi98Ws-tVvL6JzIY-33" vertex="1"><mxGeometry x="30" width="150" height="30" as="geometry"><mxRectangle width="150" height="30" as="alternateBounds"/></mxGeometry></mxCell><mxCell id="aZEEDi98Ws-tVvL6JzIY-36" value="" style="shape=tableRow;horizontal=0;startSize=0;swimlaneHead=0;swimlaneBody=0;fillColor=none;collapsible=0;dropTarget=0;points=[[0,0.5],[1,0.5]];portConstraint=eastwest;top=0;left=0;right=0;bottom=0;" parent="aZEEDi98Ws-tVvL6JzIY-32" vertex="1"><mxGeometry y="100" width="180" height="30" as="geometry"/></mxCell><mxCell id="aZEEDi98Ws-tVvL6JzIY-37" value="FK" style="shape=partialRectangle;connectable=0;fillColor=#2A0E0D;top=0;left=0;bottom=0;right=0;editable=1;overflow=hidden;" parent="aZEEDi98Ws-tVvL6JzIY-36" vertex="1"><mxGeometry width="30" height="30" as="geometry"><mxRectangle width="30" height="30" as="alternateBounds"/></mxGeometry></mxCell><mxCell id="aZEEDi98Ws-tVvL6JzIY-38" value="userid" style="shape=partialRectangle;connectable=0;fillColor=#10162A;top=0;left=0;bottom=0;right=0;align=left;spacingLeft=6;overflow=hidden;" parent="aZEEDi98Ws-tVvL6JzIY-36" vertex="1"><mxGeometry x="30" width="150" height="30" as="geometry"><mxRectangle width="150" height="30" as="alternateBounds"/></mxGeometry></mxCell><mxCell id="aZEEDi98Ws-tVvL6JzIY-39" value="" style="shape=tableRow;horizontal=0;startSize=0;swimlaneHead=0;swimlaneBody=0;fillColor=none;collapsible=0;dropTarget=0;points=[[0,0.5],[1,0.5]];portConstraint=eastwest;top=0;left=0;right=0;bottom=0;" parent="aZEEDi98Ws-tVvL6JzIY-32" vertex="1"><mxGeometry y="130" width="180" height="30" as="geometry"/></mxCell><mxCell id="aZEEDi98Ws-tVvL6JzIY-40" value="1" style="shape=partialRectangle;connectable=0;fillColor=none;top=0;left=0;bottom=0;right=0;editable=1;overflow=hidden;" parent="aZEEDi98Ws-tVvL6JzIY-39" vertex="1"><mxGeometry width="30" height="30" as="geometry"><mxRectangle width="30" height="30" as="alternateBounds"/></mxGeometry></mxCell><mxCell id="aZEEDi98Ws-tVvL6JzIY-41" value="hint" style="shape=partialRectangle;connectable=0;fillColor=#0000CC;top=0;left=0;bottom=0;right=0;align=left;spacingLeft=6;overflow=hidden;" parent="aZEEDi98Ws-tVvL6JzIY-39" vertex="1"><mxGeometry x="30" width="150" height="30" as="geometry"><mxRectangle width="150" height="30" as="alternateBounds"/></mxGeometry></mxCell><mxCell id="aZEEDi98Ws-tVvL6JzIY-42" value="" style="shape=tableRow;horizontal=0;startSize=0;swimlaneHead=0;swimlaneBody=0;fillColor=none;collapsible=0;dropTarget=0;points=[[0,0.5],[1,0.5]];portConstraint=eastwest;top=0;left=0;right=0;bottom=0;" parent="aZEEDi98Ws-tVvL6JzIY-32" vertex="1"><mxGeometry y="160" width="180" height="30" as="geometry"/></mxCell><mxCell id="aZEEDi98Ws-tVvL6JzIY-43" value="" style="shape=partialRectangle;connectable=0;fillColor=none;top=0;left=0;bottom=0;right=0;editable=1;overflow=hidden;" parent="aZEEDi98Ws-tVvL6JzIY-42" vertex="1"><mxGeometry width="30" height="30" as="geometry"><mxRectangle width="30" height="30" as="alternateBounds"/></mxGeometry></mxCell><mxCell id="aZEEDi98Ws-tVvL6JzIY-44" value="" style="shape=partialRectangle;connectable=0;fillColor=none;top=0;left=0;bottom=0;right=0;align=left;spacingLeft=6;overflow=hidden;" parent="aZEEDi98Ws-tVvL6JzIY-42" vertex="1"><mxGeometry x="30" width="150" height="30" as="geometry"><mxRectangle width="150" height="30" as="alternateBounds"/></mxGeometry></mxCell><mxCell id="aZEEDi98Ws-tVvL6JzIY-46" value="folder&#10;" style="shape=table;startSize=50;container=1;collapsible=0;childLayout=tableLayout;fixedRows=1;rowLines=0;fontStyle=1;fillColor=#0000CC;" parent="1" vertex="1"><mxGeometry x="360" y="240" width="180" height="160" as="geometry"/></mxCell><mxCell id="aZEEDi98Ws-tVvL6JzIY-47" value="" style="shape=tableRow;horizontal=0;startSize=0;swimlaneHead=0;swimlaneBody=0;top=0;left=0;bottom=0;right=0;collapsible=0;dropTarget=0;fillColor=none;points=[[0,0.5],[1,0.5]];portConstraint=eastwest;" parent="aZEEDi98Ws-tVvL6JzIY-46" vertex="1"><mxGeometry y="50" width="180" height="50" as="geometry"/></mxCell><mxCell id="aZEEDi98Ws-tVvL6JzIY-48" value="PK" style="shape=partialRectangle;html=1;whiteSpace=wrap;connectable=0;fillColor=none;top=0;left=0;bottom=0;right=0;overflow=hidden;pointerEvents=1;" parent="aZEEDi98Ws-tVvL6JzIY-47" vertex="1"><mxGeometry width="40" height="50" as="geometry"><mxRectangle width="40" height="50" as="alternateBounds"/></mxGeometry></mxCell><mxCell id="aZEEDi98Ws-tVvL6JzIY-49" value="folderid" style="shape=partialRectangle;html=1;whiteSpace=wrap;connectable=0;fillColor=none;top=0;left=0;bottom=0;right=0;align=left;spacingLeft=6;overflow=hidden;" parent="aZEEDi98Ws-tVvL6JzIY-47" vertex="1"><mxGeometry x="40" width="140" height="50" as="geometry"><mxRectangle width="140" height="50" as="alternateBounds"/></mxGeometry></mxCell><mxCell id="aZEEDi98Ws-tVvL6JzIY-50" value="" style="shape=tableRow;horizontal=0;startSize=0;swimlaneHead=0;swimlaneBody=0;top=0;left=0;bottom=0;right=0;collapsible=0;dropTarget=0;fillColor=none;points=[[0,0.5],[1,0.5]];portConstraint=eastwest;" parent="aZEEDi98Ws-tVvL6JzIY-46" vertex="1"><mxGeometry y="100" width="180" height="30" as="geometry"/></mxCell><mxCell id="aZEEDi98Ws-tVvL6JzIY-51" value="FK" style="shape=partialRectangle;html=1;whiteSpace=wrap;connectable=0;fillColor=none;top=0;left=0;bottom=0;right=0;overflow=hidden;" parent="aZEEDi98Ws-tVvL6JzIY-50" vertex="1"><mxGeometry width="40" height="30" as="geometry"><mxRectangle width="40" height="30" as="alternateBounds"/></mxGeometry></mxCell><mxCell id="aZEEDi98Ws-tVvL6JzIY-52" value="userid" style="shape=partialRectangle;html=1;whiteSpace=wrap;connectable=0;fillColor=none;top=0;left=0;bottom=0;right=0;align=left;spacingLeft=6;overflow=hidden;" parent="aZEEDi98Ws-tVvL6JzIY-50" vertex="1"><mxGeometry x="40" width="140" height="30" as="geometry"><mxRectangle width="140" height="30" as="alternateBounds"/></mxGeometry></mxCell><mxCell id="aZEEDi98Ws-tVvL6JzIY-53" value="" style="shape=tableRow;horizontal=0;startSize=0;swimlaneHead=0;swimlaneBody=0;top=0;left=0;bottom=0;right=0;collapsible=0;dropTarget=0;fillColor=none;points=[[0,0.5],[1,0.5]];portConstraint=eastwest;" parent="aZEEDi98Ws-tVvL6JzIY-46" vertex="1"><mxGeometry y="130" width="180" height="30" as="geometry"/></mxCell><mxCell id="aZEEDi98Ws-tVvL6JzIY-54" value="3" style="shape=partialRectangle;html=1;whiteSpace=wrap;connectable=0;fillColor=none;top=0;left=0;bottom=0;right=0;overflow=hidden;" parent="aZEEDi98Ws-tVvL6JzIY-53" vertex="1"><mxGeometry width="40" height="30" as="geometry"><mxRectangle width="40" height="30" as="alternateBounds"/></mxGeometry></mxCell><mxCell id="aZEEDi98Ws-tVvL6JzIY-55" value="foldername" style="shape=partialRectangle;html=1;whiteSpace=wrap;connectable=0;fillColor=none;top=0;left=0;bottom=0;right=0;align=left;spacingLeft=6;overflow=hidden;" parent="aZEEDi98Ws-tVvL6JzIY-53" vertex="1"><mxGeometry x="40" width="140" height="30" as="geometry"><mxRectangle width="140" height="30" as="alternateBounds"/></mxGeometry></mxCell><mxCell id="aZEEDi98Ws-tVvL6JzIY-56" value="user" style="shape=table;startSize=30;container=1;collapsible=0;childLayout=tableLayout;fixedRows=1;rowLines=0;fontStyle=1;fillColor=#0000CC;" parent="1" vertex="1"><mxGeometry x="50" y="420" width="180" height="150" as="geometry"/></mxCell><mxCell id="aZEEDi98Ws-tVvL6JzIY-57" value="" style="shape=tableRow;horizontal=0;startSize=0;swimlaneHead=0;swimlaneBody=0;top=0;left=0;bottom=0;right=0;collapsible=0;dropTarget=0;fillColor=none;points=[[0,0.5],[1,0.5]];portConstraint=eastwest;" parent="aZEEDi98Ws-tVvL6JzIY-56" vertex="1"><mxGeometry y="30" width="180" height="30" as="geometry"/></mxCell><mxCell id="aZEEDi98Ws-tVvL6JzIY-58" value="PK" style="shape=partialRectangle;html=1;whiteSpace=wrap;connectable=0;fillColor=none;top=0;left=0;bottom=0;right=0;overflow=hidden;pointerEvents=1;" parent="aZEEDi98Ws-tVvL6JzIY-57" vertex="1"><mxGeometry width="40" height="30" as="geometry"><mxRectangle width="40" height="30" as="alternateBounds"/></mxGeometry></mxCell><mxCell id="aZEEDi98Ws-tVvL6JzIY-59" value="userid&lt;br&gt;" style="shape=partialRectangle;html=1;whiteSpace=wrap;connectable=0;fillColor=none;top=0;left=0;bottom=0;right=0;align=left;spacingLeft=6;overflow=hidden;" parent="aZEEDi98Ws-tVvL6JzIY-57" vertex="1"><mxGeometry x="40" width="140" height="30" as="geometry"><mxRectangle width="140" height="30" as="alternateBounds"/></mxGeometry></mxCell><mxCell id="aZEEDi98Ws-tVvL6JzIY-60" value="" style="shape=tableRow;horizontal=0;startSize=0;swimlaneHead=0;swimlaneBody=0;top=0;left=0;bottom=0;right=0;collapsible=0;dropTarget=0;fillColor=none;points=[[0,0.5],[1,0.5]];portConstraint=eastwest;" parent="aZEEDi98Ws-tVvL6JzIY-56" vertex="1"><mxGeometry y="60" width="180" height="30" as="geometry"/></mxCell><mxCell id="aZEEDi98Ws-tVvL6JzIY-61" value="1" style="shape=partialRectangle;html=1;whiteSpace=wrap;connectable=0;fillColor=none;top=0;left=0;bottom=0;right=0;overflow=hidden;" parent="aZEEDi98Ws-tVvL6JzIY-60" vertex="1"><mxGeometry width="40" height="30" as="geometry"><mxRectangle width="40" height="30" as="alternateBounds"/></mxGeometry></mxCell><mxCell id="aZEEDi98Ws-tVvL6JzIY-62" value="mainpassword" style="shape=partialRectangle;html=1;whiteSpace=wrap;connectable=0;fillColor=none;top=0;left=0;bottom=0;right=0;align=left;spacingLeft=6;overflow=hidden;" parent="aZEEDi98Ws-tVvL6JzIY-60" vertex="1"><mxGeometry x="40" width="140" height="30" as="geometry"><mxRectangle width="140" height="30" as="alternateBounds"/></mxGeometry></mxCell><mxCell id="aZEEDi98Ws-tVvL6JzIY-63" value="" style="shape=tableRow;horizontal=0;startSize=0;swimlaneHead=0;swimlaneBody=0;top=0;left=0;bottom=0;right=0;collapsible=0;dropTarget=0;fillColor=none;points=[[0,0.5],[1,0.5]];portConstraint=eastwest;" parent="aZEEDi98Ws-tVvL6JzIY-56" vertex="1"><mxGeometry y="90" width="180" height="30" as="geometry"/></mxCell><mxCell id="aZEEDi98Ws-tVvL6JzIY-64" value="2" style="shape=partialRectangle;html=1;whiteSpace=wrap;connectable=0;fillColor=none;top=0;left=0;bottom=0;right=0;overflow=hidden;" parent="aZEEDi98Ws-tVvL6JzIY-63" vertex="1"><mxGeometry width="40" height="30" as="geometry"><mxRectangle width="40" height="30" as="alternateBounds"/></mxGeometry></mxCell><mxCell id="aZEEDi98Ws-tVvL6JzIY-65" value="email" style="shape=partialRectangle;html=1;whiteSpace=wrap;connectable=0;fillColor=none;top=0;left=0;bottom=0;right=0;align=left;spacingLeft=6;overflow=hidden;" parent="aZEEDi98Ws-tVvL6JzIY-63" vertex="1"><mxGeometry x="40" width="140" height="30" as="geometry"><mxRectangle width="140" height="30" as="alternateBounds"/></mxGeometry></mxCell><mxCell id="aZEEDi98Ws-tVvL6JzIY-67" value="3" style="shape=partialRectangle;html=1;whiteSpace=wrap;connectable=0;fillColor=none;top=0;left=0;bottom=0;right=0;overflow=hidden;" parent="1" vertex="1"><mxGeometry x="50" y="540" width="40" height="30" as="geometry"><mxRectangle width="40" height="30" as="alternateBounds"/></mxGeometry></mxCell><mxCell id="aZEEDi98Ws-tVvL6JzIY-68" value="login" style="shape=partialRectangle;html=1;whiteSpace=wrap;connectable=0;fillColor=none;top=0;left=0;bottom=0;right=0;align=left;spacingLeft=6;overflow=hidden;" parent="1" vertex="1"><mxGeometry x="90" y="540" width="140" height="30" as="geometry"><mxRectangle width="140" height="30" as="alternateBounds"/></mxGeometry></mxCell><mxCell id="aZEEDi98Ws-tVvL6JzIY-69" value="" style="edgeStyle=elbowEdgeStyle;elbow=vertical;endArrow=classic;html=1;rounded=0;exitX=0;exitY=0.5;exitDx=0;exitDy=0;" parent="1" source="aZEEDi98Ws-tVvL6JzIY-50" edge="1"><mxGeometry width="50" height="50" relative="1" as="geometry"><mxPoint x="364" y="390" as="sourcePoint"/><mxPoint x="370" y="360" as="targetPoint"/><Array as="points"><mxPoint x="380" y="355"/></Array></mxGeometry></mxCell><mxCell id="aZEEDi98Ws-tVvL6JzIY-70" style="edgeStyle=orthogonalEdgeStyle;rounded=0;orthogonalLoop=1;jettySize=auto;html=1;" parent="1" source="aZEEDi98Ws-tVvL6JzIY-53" target="aZEEDi98Ws-tVvL6JzIY-57" edge="1"><mxGeometry relative="1" as="geometry"/></mxCell><mxCell id="aZEEDi98Ws-tVvL6JzIY-81" value="URL" style="shape=partialRectangle;html=1;whiteSpace=wrap;connectable=1;fillColor=none;top=0;left=0;bottom=0;right=0;align=left;spacingLeft=6;overflow=hidden;movable=1;resizable=1;rotatable=1;deletable=1;editable=1;" parent="1" vertex="1"><mxGeometry x="640" y="520" width="140" height="50" as="geometry"><mxRectangle width="140" height="50" as="alternateBounds"/></mxGeometry></mxCell><mxCell id="aZEEDi98Ws-tVvL6JzIY-93" value="2" style="shape=partialRectangle;html=1;whiteSpace=wrap;connectable=1;fillColor=none;top=0;left=0;bottom=0;right=0;overflow=hidden;movable=1;resizable=1;rotatable=1;deletable=1;editable=1;" parent="1" vertex="1"><mxGeometry x="600" y="510" width="40" height="50" as="geometry"><mxRectangle width="40" height="50" as="alternateBounds"/></mxGeometry></mxCell><mxCell id="aZEEDi98Ws-tVvL6JzIY-94" value="name" style="shape=partialRectangle;html=1;whiteSpace=wrap;connectable=1;fillColor=none;top=0;left=0;bottom=0;right=0;align=left;spacingLeft=6;overflow=hidden;movable=1;resizable=1;rotatable=1;deletable=1;editable=1;" parent="1" vertex="1"><mxGeometry x="640" y="560" width="140" height="50" as="geometry"><mxRectangle width="140" height="50" as="alternateBounds"/></mxGeometry></mxCell><mxCell id="aZEEDi98Ws-tVvL6JzIY-95" value="3" style="shape=partialRectangle;html=1;whiteSpace=wrap;connectable=1;fillColor=none;top=0;left=0;bottom=0;right=0;overflow=hidden;movable=1;resizable=1;rotatable=1;deletable=1;editable=1;" parent="1" vertex="1"><mxGeometry x="600" y="560" width="40" height="50" as="geometry"><mxRectangle width="40" height="50" as="alternateBounds"/></mxGeometry></mxCell><mxCell id="aZEEDi98Ws-tVvL6JzIY-96" value="4" style="shape=partialRectangle;html=1;whiteSpace=wrap;connectable=1;fillColor=none;top=0;left=0;bottom=0;right=0;overflow=hidden;movable=1;resizable=1;rotatable=1;deletable=1;editable=1;" parent="1" vertex="1"><mxGeometry x="600" y="600" width="40" height="50" as="geometry"><mxRectangle width="40" height="50" as="alternateBounds"/></mxGeometry></mxCell><mxCell id="aZEEDi98Ws-tVvL6JzIY-97" value="login" style="shape=partialRectangle;html=1;whiteSpace=wrap;connectable=1;fillColor=none;top=0;left=0;bottom=0;right=0;align=left;spacingLeft=6;overflow=hidden;movable=1;resizable=1;rotatable=1;deletable=1;editable=1;" parent="1" vertex="1"><mxGeometry x="640" y="600" width="140" height="50" as="geometry"><mxRectangle width="140" height="50" as="alternateBounds"/></mxGeometry></mxCell><mxCell id="aZEEDi98Ws-tVvL6JzIY-98" value="" style="edgeStyle=segmentEdgeStyle;endArrow=classic;html=1;rounded=0;entryX=0;entryY=0.5;entryDx=0;entryDy=0;" parent="1" source="aZEEDi98Ws-tVvL6JzIY-47" target="aZEEDi98Ws-tVvL6JzIY-75" edge="1"><mxGeometry width="50" height="50" relative="1" as="geometry"><mxPoint x="530" y="490" as="sourcePoint"/><mxPoint x="560" y="420" as="targetPoint"/></mxGeometry></mxCell><mxCell id="8fiGuj_zWYYiuBmOfM-g-1" value="descryption&lt;br&gt;" style="shape=partialRectangle;html=1;whiteSpace=wrap;connectable=1;fillColor=none;top=0;left=0;bottom=0;right=0;align=left;spacingLeft=6;overflow=hidden;movable=1;resizable=1;rotatable=1;deletable=1;editable=1;" vertex="1" parent="1"><mxGeometry x="640" y="640" width="140" height="50" as="geometry"><mxRectangle width="140" height="50" as="alternateBounds"/></mxGeometry></mxCell><mxCell id="8fiGuj_zWYYiuBmOfM-g-2" value="5" style="shape=partialRectangle;html=1;whiteSpace=wrap;connectable=1;fillColor=none;top=0;left=0;bottom=0;right=0;overflow=hidden;movable=1;resizable=1;rotatable=1;deletable=1;editable=1;" vertex="1" parent="1"><mxGeometry x="600" y="640" width="40" height="50" as="geometry"><mxRectangle width="40" height="50" as="alternateBounds"/></mxGeometry></mxCell></root></mxGraphModel></diagram></mxfile>